<svg viewBox="0 0 1411 680" fill="none" xmlns="http://www.w3.org/2000/svg">
<path d="M294 375.984V0H344.4L378 208.992V0H421.68V375.984H371.28L337.68 166.992V375.984H294Z" fill="#101828"/>
<path d="M230.094 375.984L222.702 285.264H190.446L183.054 375.984H142.734L172.974 0H243.534L273.774 375.984H230.094ZM193.47 244.944H219.678L206.574 83.664L193.47 244.944Z" fill="#101828"/>
<path d="M0 375.984V0H63.84C106.512 0 127.68 21.168 127.68 63.84V312.144C127.68 354.816 106.512 375.984 63.84 375.984H0ZM47.04 335.664H63.84C75.264 335.664 80.64 329.952 80.64 318.864V57.12C80.64 46.032 75.264 40.32 63.84 40.32H47.04V335.664Z" fill="#101828"/>
<path d="M659.92 679.984V344.284H716.92C755.02 344.284 773.92 363.184 773.92 401.284V622.984C773.92 661.084 755.02 679.984 716.92 679.984H659.92ZM701.92 643.984H716.92C727.12 643.984 731.92 638.884 731.92 628.984V395.284C731.92 385.384 727.12 380.284 716.92 380.284H701.92V643.984Z" fill="#101828"/>
<path d="M792.049 679.984V344.284H891.049V380.284H834.049V484.384H876.049V520.384H834.049V643.984H891.049V679.984H792.049Z" fill="#101828"/>
<path d="M908.943 679.984V344.284H953.943L983.943 530.884V344.284H1022.94V679.984H977.943L947.943 493.384V679.984H908.943Z" fill="#101828"/>
<path d="M1041.07 679.984V344.284H1086.07L1116.07 530.884V344.284H1155.07V679.984H1110.07L1080.07 493.384V679.984H1041.07Z" fill="#101828"/>
<path d="M1173.2 679.984V344.284H1272.2V380.284H1215.2V484.384H1257.2V520.384H1215.2V643.984H1272.2V679.984H1173.2Z" fill="#101828"/>
<path d="M1330.6 344.284L1353.1 465.784L1374.1 344.284H1410.1L1372.6 552.784V679.984H1330.6V552.784L1290.1 344.284H1330.6Z" fill="#101828"/>
<g clip-path="url(#clip0_324_81)">
<mask id="mask0_324_81" style="mask-type:luminance" maskUnits="userSpaceOnUse" x="345" y="78" width="375" height="601">
<path d="M345.92 78.9839H719.92V678.984H345.92V78.9839Z" fill="white"/>
</mask>
<g mask="url(#mask0_324_81)">
<path d="M597.388 426.464C597.388 426.464 779.113 530.84 664.871 552.379L664.163 563.459C664.163 563.459 825.719 548.39 598.807 413.454L597.388 426.464Z" fill="#E9C09B"/>
<path d="M514.991 564.791L607.117 560.557L603.728 670.429L595.837 669.721L597.809 587.593L526.825 581.833L524.853 669.721H514.991V564.791Z" fill="#24416B"/>
<path d="M602.618 664.646C602.618 664.646 609.268 675.482 625.843 675.482L626.265 678.873C626.265 678.873 605.278 680.557 598.807 670.429L599.228 678.165L592.18 677.454L594.396 663.515L602.618 664.646ZM514.991 664.512C514.991 664.512 508.232 675.35 491.744 675.35L491.323 678.739C491.323 678.739 512.31 680.423 518.803 670.275L518.382 678.031L525.429 677.323L523.213 663.384L514.991 664.512Z" fill="#231F20"/>
<path d="M671.496 552.247C673.714 558.896 672.472 565.542 668.949 567.183C665.425 568.823 661.767 574.785 660.637 580.481C659.508 586.174 655.851 590.341 652.482 589.787C649.113 589.233 648.049 583.87 649.934 577.952C651.817 572.037 648.25 569.488 641.756 572.168L637.967 573.721C631.474 576.402 625.135 575.56 623.739 572.037C622.343 568.512 626.554 563.57 633.179 561.178L636.968 559.782C643.461 557.387 643.619 554.573 637.125 553.445C630.632 552.314 625.423 548.789 625.578 545.688C625.732 542.585 631.34 540.901 638.256 541.898L645.146 542.874C652.039 543.87 656.227 541.609 654.432 537.798C653.521 536.07 653.277 534.068 653.746 532.172C654.215 530.274 655.367 528.618 656.982 527.516C660.217 525.698 664.449 529.73 666.422 536.248L671.496 552.247Z" fill="#E9C09B"/>
<path d="M616.138 406.962C633.71 419.123 650.635 432.193 666.844 446.119L644.437 468.281L613.41 443.771L616.138 406.962Z" fill="#272826"/>
<path d="M534.161 421.81C534.161 421.81 297.519 486.739 381.888 376.602L374.287 367.071C374.287 367.071 243.844 510.739 542.472 433.288L534.161 421.81Z" fill="#E9C09B"/>
<path d="M540.344 440.98C540.344 440.98 468.651 463.36 450.9 458.861L448.506 426.176L503.024 420.546H518.382L540.344 440.98Z" fill="#272826"/>
<path d="M371.45 378.994C364.979 376.314 360.746 371.261 362.032 367.739C363.317 364.213 361.743 357.721 358.641 353.511C355.538 349.301 355.25 343.937 357.799 341.81C360.347 339.683 364.691 342.098 367.373 347.171C370.054 352.247 374.287 350.962 376.813 344.491L378.232 341.102C380.758 334.629 385.545 330.264 388.936 331.394C392.326 332.524 392.725 338.707 389.911 345.044L388.359 348.436C385.545 354.773 387.385 356.614 392.437 352.512C397.49 348.412 403.297 346.597 405.402 348.569C407.507 350.542 404.848 355.994 399.485 360.425L394.277 364.857C389.069 369.289 387.805 373.854 391.462 374.851C393.208 375.24 394.732 376.298 395.706 377.797C396.68 379.297 397.026 381.12 396.67 382.872C395.828 386.264 390.022 386.951 383.373 384.291L371.45 378.994Z" fill="#E9C09B"/>
<path d="M547.946 570.131L511.889 569.289L500.342 399.273L620.349 395.06L609.51 572.946L562.75 570.263" fill="#272826"/>
<path d="M507.523 440.202C507.523 440.202 561.908 484.988 616.691 426.907L507.523 440.202Z" fill="#121212"/>
<path d="M620.725 310.408C627.638 328.58 641.444 332.236 651.441 319.427C661.435 306.618 664.116 282.663 657.78 265.621C651.441 248.58 637.833 244.059 627.507 255.893C617.178 267.727 613.876 292.236 620.725 310.408Z" fill="#D09F78"/>
<path d="M474.568 222.784C474.568 222.784 535.269 186.729 551.624 231.893L548.522 236.945C548.522 236.945 531.745 213.92 474.568 222.784Z" fill="#231F20"/>
<path d="M643.595 222.23C640.36 260.679 641.756 320.535 646.83 355.195C651.907 389.853 630.497 426.33 599.361 436.192C568.224 446.052 526.538 447.87 506.969 440.202C487.4 432.536 463.377 393.51 453.448 353.222C443.52 312.934 438.644 251.527 442.367 216.734C446.091 181.942 462.446 144.491 478.89 133.632C495.334 122.773 536.067 121.798 569.465 131.66C602.862 141.521 634.531 150.119 639.873 150.829C645.213 151.538 646.83 183.782 643.595 222.23Z" fill="#E9C09B"/>
<path d="M542.605 320.269C542.605 320.269 565.564 338.441 602.441 320.269C602.464 320.269 572.456 367.316 542.605 320.269Z" fill="#D09F78"/>
<path d="M454.711 314.773C444.85 337.731 426.544 340.414 414.001 321.422C401.457 302.43 399.108 270.12 408.216 248.58C417.325 227.039 435.276 223.206 448.506 240.757C461.737 258.308 464.574 291.726 454.711 314.773Z" fill="#E9C09B"/>
<path d="M438.223 302.519C438.223 302.519 451.52 225.887 412.028 272.225C411.895 272.225 441.038 249.843 438.223 302.519Z" fill="#D09F78"/>
<path d="M438.356 302.807C438.356 302.807 437.381 261.1 415.397 303.649C415.264 303.649 432.882 278.009 438.356 302.807Z" fill="#D09F78"/>
<path d="M543.026 362.797C543.026 362.797 532.455 402.95 550.494 415.98C550.494 415.98 518.648 423.736 515.035 421.344C515.035 421.344 509.96 419.127 509.406 405.144C509.406 405.144 510.382 360.203 515.035 346.973C514.991 346.885 536.134 363.216 543.026 362.797Z" fill="#CA8B84"/>
<path d="M533.873 418.996C533.873 418.996 522.172 380.547 509.916 389.853C509.916 389.853 507.39 423.649 518.382 421.81L533.873 418.996Z" fill="#6C2E29"/>
<path d="M573.299 411.394L568.866 396.191L511.468 416.89C511.927 418.737 513.07 420.34 514.666 421.378C516.263 422.413 518.192 422.805 520.066 422.475L573.299 411.394Z" fill="white"/>
<path d="M527.956 335.445C527.956 335.445 506.548 329.527 503.445 355.168C505.112 349.819 508.333 345.088 512.698 341.576C517.063 338.064 522.374 335.929 527.956 335.445Z" fill="#A58060"/>
<path d="M605.567 363.216L609.379 378.152C609.379 378.152 553.597 408.579 512.132 361.821L514.991 347.127C514.991 346.885 564.722 389.41 605.567 363.216Z" fill="white"/>
<path d="M571.969 422.23C585.776 423.649 576.911 410.552 576.911 410.552C576.911 410.552 536.621 419.838 518.315 422.097C500.01 424.357 514.991 347.127 514.991 347.127C569.509 385.445 600.646 372.06 617.534 352.468" stroke="#A58060" stroke-width="2.598"/>
<path d="M512.044 387.173L513.307 397.589L511.046 398.163L511.468 400.558L519.224 399.139L518.382 395.617L515.567 395.748L514.991 388.723L512.044 387.173Z" fill="#CA8B84"/>
<path d="M446.955 327.028C446.955 327.028 456.108 315.749 456.95 308.435C456.95 308.435 457.947 326.607 448.639 334.208L446.955 327.028ZM556.456 283.217C556.456 283.217 516.964 227.726 485.272 289.51C485.272 289.51 529.352 342.386 556.456 283.217Z" fill="#D09F78"/>
<path d="M556.456 283.217C556.456 283.217 521.329 244.347 487.755 288.579C487.533 288.712 516.964 315.615 556.456 283.217Z" fill="white"/>
<mask id="mask1_324_81" style="mask-type:luminance" maskUnits="userSpaceOnUse" x="480" y="264" width="85" height="39">
<path d="M564.013 283.217C564.013 283.217 521.196 235.904 480.064 289.865C480.197 289.843 515.988 322.751 564.013 283.217Z" fill="white"/>
</mask>
<g mask="url(#mask1_324_81)">
<path d="M508.52 287.028C507.614 283.89 507.957 280.523 509.477 277.632C510.997 274.741 513.576 272.549 516.675 271.516C518.931 270.887 521.322 270.943 523.546 271.676C525.769 272.409 527.724 273.786 529.164 275.632C530.119 276.858 530.823 278.261 531.236 279.76C531.246 279.87 531.246 279.981 531.236 280.092C532.141 283.23 531.798 286.597 530.278 289.489C528.758 292.38 526.179 294.571 523.08 295.604C520.054 296.407 516.833 295.985 514.115 294.429C511.398 292.874 509.404 290.31 508.564 287.294C508.564 287.294 508.542 287.095 508.52 287.028Z" fill="#096D7A"/>
</g>
<mask id="mask2_324_81" style="mask-type:luminance" maskUnits="userSpaceOnUse" x="480" y="264" width="85" height="39">
<path d="M564.013 283.217C564.013 283.217 521.196 235.904 480.064 289.865C480.197 289.843 515.988 322.751 564.013 283.217Z" fill="white"/>
</mask>
<g mask="url(#mask2_324_81)">
<path d="M515.124 285.078C514.756 283.75 514.917 282.332 515.575 281.12C516.232 279.909 517.334 279 518.648 278.585C519.903 278.221 521.251 278.369 522.397 278.996C523.543 279.623 524.394 280.679 524.765 281.932C524.774 282.042 524.774 282.154 524.765 282.264C525.132 283.589 524.97 285.005 524.312 286.212C523.655 287.42 522.553 288.324 521.241 288.735C520.619 288.918 519.968 288.977 519.324 288.908C518.679 288.839 518.055 288.643 517.487 288.332C516.919 288.021 516.417 287.601 516.012 287.096C515.606 286.591 515.305 286.011 515.124 285.389C515.134 285.285 515.134 285.182 515.124 285.078Z" fill="black"/>
</g>
<mask id="mask3_324_81" style="mask-type:luminance" maskUnits="userSpaceOnUse" x="480" y="264" width="85" height="39">
<path d="M564.013 283.217C564.013 283.217 521.196 235.904 480.064 289.865C480.197 289.843 515.988 322.751 564.013 283.217Z" fill="white"/>
</mask>
<g mask="url(#mask3_324_81)">
<path d="M512.31 281.532C512.115 280.778 512.219 279.977 512.598 279.297C512.977 278.616 513.604 278.107 514.349 277.876C514.695 277.775 515.058 277.745 515.416 277.787C515.774 277.829 516.121 277.942 516.435 278.119C516.748 278.297 517.024 278.535 517.244 278.821C517.464 279.106 517.625 279.433 517.717 279.782C517.92 280.528 517.829 281.323 517.462 282.004C517.095 282.685 516.48 283.198 515.745 283.438C515.417 283.545 515.072 283.587 514.729 283.56C514.385 283.533 514.051 283.439 513.744 283.282C513.437 283.126 513.164 282.91 512.941 282.648C512.717 282.386 512.548 282.082 512.443 281.754C512.392 281.684 512.347 281.61 512.31 281.532Z" fill="white"/>
</g>
<path d="M636.239 277.721C636.239 277.721 602.995 230.829 575.98 283.084C575.98 283.084 613.168 327.582 636.239 277.721Z" fill="#D09F78"/>
<path d="M636.239 277.72C636.239 277.72 606.497 244.768 577.908 282.153C577.953 282.241 602.752 305.023 636.239 277.72Z" fill="white"/>
<path d="M474.147 264.912L469.715 253.632C469.715 253.632 509.008 213.92 549.497 250.818L547.946 252.524C547.946 252.657 501.34 231.893 474.147 264.912ZM640.226 258.485L644.437 246.785C644.437 246.785 606.762 215.76 574.584 251.726L575.005 253.123C575.005 253.123 613.745 232.225 640.226 258.485Z" fill="#3B2416"/>
<mask id="mask4_324_81" style="mask-type:luminance" maskUnits="userSpaceOnUse" x="568" y="262" width="70" height="33">
<path d="M637.545 278.297C637.545 278.297 602.33 239.272 568.512 283.638C568.512 283.638 597.964 310.541 637.545 278.297Z" fill="white"/>
</mask>
<g mask="url(#mask4_324_81)">
<path d="M591.915 281.244C591.188 278.665 591.488 275.904 592.752 273.541C594.016 271.178 596.147 269.396 598.696 268.569C600.578 268.059 602.57 268.12 604.418 268.745C606.265 269.369 607.885 270.528 609.072 272.076C609.862 273.102 610.441 274.275 610.775 275.527C611.502 278.104 611.205 280.862 609.946 283.224C608.685 285.587 606.56 287.371 604.014 288.203C602.809 288.568 601.544 288.692 600.292 288.568C598.405 288.38 596.616 287.637 595.152 286.432C593.689 285.226 592.616 283.614 592.07 281.798C591.915 281.688 591.915 281.466 591.915 281.244Z" fill="#096D7A"/>
</g>
<mask id="mask5_324_81" style="mask-type:luminance" maskUnits="userSpaceOnUse" x="568" y="262" width="70" height="33">
<path d="M637.545 278.297C637.545 278.297 602.33 239.272 568.512 283.638C568.512 283.638 597.964 310.541 637.545 278.297Z" fill="white"/>
</mask>
<g mask="url(#mask5_324_81)">
<path d="M597.255 279.693C596.963 278.612 597.091 277.461 597.613 276.47C598.135 275.479 599.013 274.723 600.07 274.353C600.575 274.199 601.105 274.147 601.63 274.198C602.156 274.25 602.665 274.405 603.131 274.654C603.596 274.902 604.007 275.241 604.341 275.65C604.675 276.058 604.926 276.529 605.077 277.034V277.3C605.376 278.384 605.252 279.541 604.73 280.537C604.207 281.533 603.326 282.293 602.264 282.663C601.74 282.804 601.194 282.839 600.656 282.768C600.118 282.697 599.6 282.521 599.13 282.249C598.661 281.977 598.25 281.615 597.921 281.184C597.591 280.754 597.35 280.262 597.211 279.738L597.255 279.693Z" fill="black"/>
</g>
<mask id="mask6_324_81" style="mask-type:luminance" maskUnits="userSpaceOnUse" x="568" y="262" width="70" height="33">
<path d="M637.545 278.297C637.545 278.297 602.33 239.272 568.512 283.638C568.512 283.638 597.964 310.541 637.545 278.297Z" fill="white"/>
</mask>
<g mask="url(#mask6_324_81)">
<path d="M594.862 276.746C594.728 276.147 594.81 275.521 595.094 274.977C595.378 274.433 595.845 274.008 596.413 273.776C596.701 273.69 597.004 273.662 597.303 273.696C597.602 273.73 597.891 273.825 598.152 273.974C598.414 274.123 598.642 274.324 598.823 274.565C599.004 274.805 599.134 275.08 599.206 275.372C599.344 275.967 599.263 276.593 598.978 277.134C598.694 277.675 598.224 278.096 597.654 278.319C597.368 278.406 597.066 278.435 596.769 278.402C596.471 278.369 596.183 278.277 595.922 278.13C595.661 277.983 595.432 277.784 595.25 277.546C595.068 277.309 594.936 277.036 594.862 276.746Z" fill="white"/>
</g>
<path d="M446.955 327.028L454.29 325.765L457.526 193.488L637.035 167.87L641.468 244.059C641.468 244.059 644.592 145.333 676.13 86.0309C676.13 86.0309 639.095 113.488 610.929 127.87L588.812 78.9839L575.138 104.047L556.123 88.535L541.186 105.156C541.186 105.156 519.645 90.2415 480.618 100.258C480.618 100.258 488.375 106.729 492.608 109.543C492.608 109.543 433.724 114.906 418.367 146.308C418.367 146.308 426.965 138.286 435.409 138.286C435.409 138.286 412.449 193.067 429.491 219.97C429.491 219.97 438.932 230.674 438.932 240.69L446.955 327.028Z" fill="#3B2416"/>
<path opacity="0.55" d="M458.501 213.366L637.125 167.871L457.526 193.488L458.501 214.918" fill="#D09F78"/>
<mask id="mask7_324_81" style="mask-type:luminance" maskUnits="userSpaceOnUse" x="541" y="477" width="39" height="51">
<path d="M579.35 477.868H541.162V527.944H579.35V477.868Z" fill="white"/>
</mask>
<g mask="url(#mask7_324_81)">
<path d="M573.421 500.488C574.773 498.613 575.601 496.478 575.601 494.256C575.601 489.809 570.719 486.235 566.011 486.235C561.303 486.235 558.338 488.372 554.371 489.549C555.287 490.594 555.635 491.727 555.81 493.339C555.853 493.558 555.853 494.125 555.853 494.995C556.289 494.951 556.725 494.866 557.248 494.823C558.949 494.604 560.561 494.385 561.085 494.256C561.346 494.212 561.564 494.125 561.782 494.037V491.421C562.785 490.898 563.962 490.55 565.226 490.55C567.798 490.55 570.414 492.598 570.414 495.345C570.414 499.442 567.754 503.624 563.308 505.499V506.501C566.011 506.153 568.713 504.932 570.849 503.145C572.942 504.845 573.683 507.59 573.683 511.164C573.683 514.957 571.46 518.835 567.667 519.793C565.793 520.231 563.308 520.535 561.433 520.666C561.52 520.36 561.608 520.1 561.651 519.665C561.782 514.651 561.782 510.206 561.738 503.799C561.738 502.491 561.738 500.66 561.695 499.136H561.782C563.09 499.136 564.223 499.486 564.746 500.4L565.182 500.313C565.095 498.394 565.706 494.56 566.447 492.904L566.054 492.685C564.79 494.3 563.264 495.345 561.303 495.781C560.213 495.999 556.071 496.478 552.715 497.001V496.478C552.671 492.381 552.671 488.503 552.715 486.541C556.682 484.056 563.962 483.577 568.364 484.666C569.062 482.923 571.939 479.699 573.77 478.87C571.242 477.605 567.667 477.649 564.921 478.435C561.172 479.699 554.328 481.878 549.968 481.878C548.094 482.009 545.391 481.355 544.955 481.092C544.955 481.092 544.476 481.617 544.301 481.834C545.391 482.792 546.655 484.45 546.786 485.975C546.96 487.63 547.048 510.338 546.742 513.953C546.655 515.305 546.263 516.701 545.74 516.961C545.522 515.959 544.694 515.393 543.516 515.524C542.252 515.653 541.162 516.961 541.162 518.313C541.162 519.402 542.078 520.448 543.255 520.623C543.56 520.666 543.865 520.666 544.214 520.623C545.565 520.491 547.004 519.75 547.789 518.923C548.312 519.139 548.66 519.402 548.878 519.75L548.966 519.837L549.314 519.793L549.358 519.706C550.927 518.094 553.281 516.745 555.941 515.959C555.897 518.488 555.853 520.447 555.766 521.277C555.679 522.626 555.287 524.022 554.763 524.284C554.546 523.28 553.717 522.714 552.54 522.845C551.32 522.976 550.23 524.284 550.186 525.59C550.186 526.679 551.102 527.727 552.279 527.9C552.584 527.944 552.889 527.944 553.238 527.9C554.589 527.769 556.028 527.029 556.812 526.2C557.336 526.419 557.684 526.679 557.902 527.029L557.989 527.117L558.338 527.073L558.382 526.986C558.73 526.463 559.21 525.853 560.343 525.459C562.698 524.676 565.575 524.501 567.362 524.326C574.642 523.587 579.394 517.79 579.394 511.164C579.35 506.328 577.127 502.1 573.421 500.488ZM552.758 512.297C552.889 510.51 552.889 505.674 552.889 500.532C553.892 500.269 554.938 500.053 555.984 499.878V511.296C554.763 511.558 553.63 511.862 552.758 512.297Z" fill="white"/>
<path d="M567.667 516.178L567.972 516.046L568.016 515.915C568.67 513.997 570.239 509.771 571.634 506.938L571.721 506.763L571.068 506.153L570.893 506.328C570.849 506.372 567.754 509.858 565.052 510.162C564.615 510.206 564.049 510.25 563.395 510.337V515.045C564.79 515.173 566.054 515.567 567.58 516.09L567.667 516.178Z" fill="white"/>
</g>
</g>
<rect x="659.92" y="403.984" width="42" height="116" fill="#101828"/>
<path d="M396.92 326.984L363.92 327.984L370.42 375.484L411.42 375.984V357.984V344.984L396.92 326.984Z" fill="#101828"/>
</g>
<defs>
<clipPath id="clip0_324_81">
<rect width="374" height="600" fill="white" transform="translate(345.92 78.9839)"/>
</clipPath>
</defs>
</svg>
