<?xml version="1.0" encoding="UTF-8"?><svg id="a" xmlns="http://www.w3.org/2000/svg" viewBox="0 0 289.185 289.18506"><path d="M144.59253,0h-.00006C64.73627,.00006,0,64.73633,0,144.59253s64.73627,144.59253,144.59253,144.59253,144.59247-64.73627,144.59247-144.59253S224.44873,0,144.59253,0Zm0,278.06256c-73.7135,0-133.47003-59.75659-133.47003-133.47003S70.87903,11.12256,144.59247,11.12256h.00006c73.71344,0,133.46997,59.75647,133.46997,133.46997s-59.75653,133.47003-133.46997,133.47003Zm41.72075-68.46879l-43.55099,14.15056v45.7921l-26.91585-37.04666-43.55099,14.15056,26.91591-37.04672-26.91591-37.04662,43.55099,14.15056,26.91591-37.04662v45.79211l43.55095,14.15073h-.00002ZM101.10251,117.33306l39.65714,22.89606-18.6253-41.8332,34.03017-30.64097-45.54121,4.78659-18.62541-41.8332-9.52071,44.79152-45.54131,4.78659,39.65714,22.89606-9.52071,44.79152,34.03019-30.64098Zm168.04642,38.40392l.00034,.00011-34.03023-30.6408,18.62541-41.8332-39.65714,22.89606-34.03029-30.64097,9.52071,44.79152-39.65714,22.89606,45.54131,4.78659,9.52071,44.79152,18.62541-41.83319,45.54121,4.78659-.00027-.00027-.00003-.00002Z"/></svg>