<svg width="996" height="242" viewBox="0 0 996 242" fill="none" xmlns="http://www.w3.org/2000/svg">
<path d="M231.749 239.143C220.02 238.416 168.283 237.224 116.778 236.495C33.7605 235.319 3.29342 233.898 0.465476 231.071C-1.24871 229.357 2.13627 222.523 4.69955 222.523C6.15266 222.523 8.80843 219.428 10.6012 215.644C12.6899 211.237 15.5227 208.376 18.4871 207.682C24.8012 206.203 25.1873 201.678 19.5213 195.565C13.9469 189.55 13.9307 189.457 17.7205 185.269C20.409 182.299 20.3318 181.708 16.7934 178.169C14.6704 176.047 12.9337 173.626 12.9337 172.789C12.9337 171.953 16.5719 167.989 21.0187 163.981C25.4654 159.973 29.6782 154.866 30.3803 152.632C31.2687 149.805 33.4052 148.396 37.4068 147.996C45.3155 147.206 48.1586 142.337 43.6315 137.334C38.0797 131.2 41.8329 125.875 54.8406 121.432C63.7658 118.383 65.6752 117.016 65.1987 114.014C63.6407 104.202 63.961 102.912 68.101 102.324C72.9409 101.637 73.0428 101.317 69.9843 96.4197C68.0609 93.3398 68.4211 91.4254 72.239 84.4363C74.7381 79.8615 77.8544 75.7071 79.1638 75.2046C82.8103 73.8053 82.0603 71.4094 75.9161 64.8324C69.0027 57.4316 69.6063 54.875 78.4431 54.1282C85.7782 53.5084 86.882 51.8734 82.4493 48.1945C79.2826 45.5663 81.8349 40.796 86.408 40.796C88.1348 40.796 88.9626 38.4858 88.9626 33.6659C88.9626 25.0808 94.1195 19.3743 100.395 21.0153C102.67 21.6103 105.41 21.4369 106.483 20.6299C107.555 19.823 131.798 19.8756 160.355 20.7468C188.913 21.618 223.126 22.1045 236.384 21.8279L260.491 21.3251L259.856 10.6625L259.221 0H273.073C283.124 0 287.559 0.763284 289.234 2.78149C291.271 5.23612 332.926 5.56305 643.639 5.56305C859.079 5.56305 995.746 6.23139 995.746 7.28497C995.746 8.23203 994.487 10.2653 992.949 11.8031C991.055 13.6975 989.911 19.5718 989.403 30.0156C988.991 38.4944 988.58 46.0576 988.491 46.8226C988.402 47.5875 984.295 48.2133 979.366 48.2133C971.234 48.2133 969.886 48.8596 964.795 55.1941C961.71 59.0335 958.636 63.8317 957.964 65.8567C957.292 67.8816 955.21 71.5251 953.337 73.9532C950.277 77.92 948.17 78.45 932.565 79.1771L915.198 79.9863L904.466 90.988C893.555 102.173 892.318 102.797 884.945 100.821C882.064 100.049 880.773 98.3029 880.773 95.1781C880.773 90.9527 880.516 90.8337 876.881 93.3792C872.673 96.3269 867.793 104.55 867.793 108.692C867.793 111.634 861.175 112.201 859.448 109.407C857.424 106.132 854.813 107.426 854.771 111.725C854.749 114.02 853.098 117.984 851.103 120.533C849.109 123.083 847.459 126.212 847.436 127.487C847.408 129.047 844.154 129.805 837.483 129.805C829.927 129.805 826.774 130.686 824.215 133.514C822.369 135.554 819.293 137.223 817.379 137.223C815.465 137.223 813.422 138.468 812.838 139.99C812.254 141.512 806.033 146.575 799.015 151.241C786.567 159.516 785.937 159.711 773.36 159.198C760.68 158.68 760.357 158.784 753.878 165.456C748.675 170.813 745.634 172.361 739.427 172.812C732.496 173.315 731.371 174.041 729.922 178.946C729.018 182.005 727.602 185.862 726.775 187.516C725.949 189.17 726.052 191.303 727.006 192.257C730.517 195.768 719 203.808 708.26 205.343L698.117 206.792L697.672 214.194C697.427 218.265 696.251 225.977 695.058 231.331L692.889 241.067L472.98 240.766C352.029 240.6 243.466 239.87 231.746 239.143L231.749 239.143Z" fill="#F5F5F5"/>
</svg>
