<svg width="290" height="290" viewBox="0 0 290 290" fill="none" xmlns="http://www.w3.org/2000/svg">
<g opacity="0.1" clip-path="url(#clip0_1_3)">
<path d="M144.593 0C64.7363 6e-05 0 64.7363 0 144.593C0 224.449 64.7363 289.185 144.593 289.185C224.449 289.185 289.185 224.449 289.185 144.593C289.185 64.7363 224.449 0 144.593 0ZM144.593 278.063C70.879 278.063 11.1225 218.306 11.1225 144.593C11.1225 70.8791 70.879 11.1226 144.592 11.1226C218.306 11.1226 278.062 70.879 278.062 144.593C278.062 218.306 218.306 278.063 144.593 278.063ZM186.313 209.594L142.762 223.744V269.536L115.846 232.49L72.2954 246.64L99.2114 209.594L72.2954 172.547L115.846 186.698L142.762 149.651V195.443L186.313 209.594ZM101.103 117.333L140.76 140.229L122.134 98.3959L156.165 67.755L110.623 72.5415L91.9979 30.7083L82.4772 75.4999L36.9359 80.2865L76.593 103.183L67.0723 147.974L101.103 117.333ZM269.149 155.737L235.119 125.096L253.744 83.2631L214.087 106.159L180.057 75.5182L189.578 120.31L149.921 143.206L195.462 147.992L204.983 192.784L223.608 150.951L269.149 155.737Z" fill="white"/>
</g>
<defs>
<clipPath id="clip0_1_3">
<rect width="289.185" height="289.185" fill="white"/>
</clipPath>
</defs>
</svg>
