<svg width="102" height="16" viewBox="0 0 102 16" fill="none" xmlns="http://www.w3.org/2000/svg">
<g id="Group 427319154">
<path id="Vector" d="M80.6465 15.7532L77.4736 11.2047C77.3405 11.2195 77.1408 11.2269 76.8745 11.2269H73.3688V15.7532H70.4844V0.22168H76.8745C78.2206 0.22168 79.3891 0.44356 80.3802 0.887319C81.3861 1.33108 82.1552 1.96713 82.6877 2.79548C83.2203 3.62383 83.4865 4.6075 83.4865 5.74648C83.4865 6.91505 83.1981 7.9209 82.6212 8.76404C82.0591 9.60718 81.2455 10.2358 80.1805 10.65L83.7528 15.7532H80.6465ZM80.5799 5.74648C80.5799 4.75542 80.2545 3.99363 79.6036 3.46112C78.9528 2.92861 77.9987 2.66236 76.7414 2.66236H73.3688V8.85279H76.7414C77.9987 8.85279 78.9528 8.58654 79.6036 8.05403C80.2545 7.50673 80.5799 6.73754 80.5799 5.74648Z" fill="#FAEBD7"/>
<path id="Vector_2" d="M59.7809 15.9753C58.1981 15.9753 56.7707 15.6351 55.4986 14.9547C54.2265 14.2595 53.228 13.3054 52.5032 12.0924C51.7784 10.8647 51.416 9.49644 51.416 7.98766C51.416 6.47888 51.7784 5.11802 52.5032 3.90508C53.228 2.67735 54.2265 1.72326 55.4986 1.04283C56.7707 0.347611 58.1981 0 59.7809 0C61.3636 0 62.791 0.347611 64.0631 1.04283C65.3353 1.72326 66.3337 2.66995 67.0585 3.88289C67.7833 5.09583 68.1457 6.46409 68.1457 7.98766C68.1457 9.51124 67.7833 10.8795 67.0585 12.0924C66.3337 13.3054 65.3353 14.2595 64.0631 14.9547C62.791 15.6351 61.3636 15.9753 59.7809 15.9753ZM59.7809 13.4459C60.8163 13.4459 61.7482 13.2166 62.5766 12.7581C63.4049 12.2847 64.0558 11.6339 64.5291 10.8055C65.0024 9.96239 65.2391 9.0231 65.2391 7.98766C65.2391 6.95223 65.0024 6.02033 64.5291 5.19198C64.0558 4.34884 63.4049 3.69799 62.5766 3.23944C61.7482 2.7661 60.8163 2.52943 59.7809 2.52943C58.7454 2.52943 57.8135 2.7661 56.9852 3.23944C56.1568 3.69799 55.506 4.34884 55.0327 5.19198C54.5593 6.02033 54.3226 6.95223 54.3226 7.98766C54.3226 9.0231 54.5593 9.96239 55.0327 10.8055C55.506 11.6339 56.1568 12.2847 56.9852 12.7581C57.8135 13.2166 58.7454 13.4459 59.7809 13.4459Z" fill="#FAEBD7"/>
<path id="Vector_3" d="M34.0312 0.22168H40.8208C42.4775 0.22168 43.9493 0.547104 45.2362 1.19795C46.5231 1.834 47.5215 2.74371 48.2315 3.92707C48.9416 5.09563 49.2966 6.4491 49.2966 7.98746C49.2966 9.52583 48.9416 10.8867 48.2315 12.07C47.5215 13.2386 46.5231 14.1483 45.2362 14.7992C43.9493 15.4352 42.4775 15.7532 40.8208 15.7532H34.0312V0.22168ZM40.6876 13.3126C41.8266 13.3126 42.8251 13.0981 43.683 12.6691C44.5557 12.2254 45.2214 11.6041 45.6799 10.8053C46.1533 9.99178 46.3899 9.05249 46.3899 7.98746C46.3899 6.92244 46.1533 5.99055 45.6799 5.19178C45.2214 4.37822 44.5557 3.75696 43.683 3.32799C42.8251 2.88423 41.8266 2.66236 40.6876 2.66236H36.9157V13.3126H40.6876Z" fill="#FAEBD7"/>
<path id="Vector_4" d="M13.8231 15.7532L8.38705 3.10611L2.97319 15.7532H0L6.9892 0.22168H9.82926L16.8407 15.7532H13.8231Z" fill="#FAEBD7"/>
<path id="Vector_5" d="M31.6759 0.22168V15.7532H29.3018L20.7372 5.23616V15.7532H17.875V0.22168H20.2491L28.8137 10.7388V0.22168H31.6759Z" fill="#FAEBD7"/>
<rect id="Rectangle 610" x="67.6016" y="1.79688" width="2.95111" height="19.7263" transform="rotate(60 67.6016 1.79688)" fill="#FAEBD7"/>
<path id="Vector_6" d="M98.5594 15.7532L93.1234 3.10611L87.7095 15.7532H84.7363L91.7255 0.22168H94.5656L101.577 15.7532H98.5594Z" fill="#FAEBD7"/>
</g>
</svg>
