<svg width="1707" height="715" viewBox="0 0 1707 715" fill="none" xmlns="http://www.w3.org/2000/svg">
<path d="M528.8 5.33313C518.933 12.9331 519.2 12.1331 510.667 70.6665C510.133 75.0665 508.933 83.1998 508 88.6665C507.2 94.1331 505.333 106.8 504 116.666C502.533 126.533 500.8 138.266 500.133 142.666C499.333 147.066 497.867 157.2 496.667 165.333C495.467 173.333 494 183.866 493.333 188.666C492.533 193.466 490.8 205.733 489.333 216C484.8 246.666 482.667 260.666 480.667 274C479.6 280.933 476.8 299.866 474.667 316C472.4 332.133 470.133 348.266 469.333 352C467.467 362.266 462.667 395.6 462.667 398.933C462.667 400.666 462.133 402 461.333 402C460.667 402 460 401.333 460 400.533C460 396.933 452.933 384.266 447.867 378.8C441.2 371.733 434.533 368.666 422.667 367.733C414.933 367.066 413.067 367.466 406.667 370.666C392.4 377.866 383.467 387.866 368.8 412.933C357.333 432.533 352.533 438 342 443.333L332.8 448L166.4 447.466L0 447.066V471.866V496.666H39.7333C61.4667 496.666 89.8667 496.933 102.667 497.333C115.467 497.733 172.4 498.266 229.067 498.666C335.733 499.333 334 499.333 350 494.266C373.333 486.8 393.6 469.2 409.2 442.933L417.733 428.533L420.133 432.666C421.6 434.933 422.667 436.933 422.667 437.333C422.667 437.6 424.667 441.333 427.067 445.6C429.6 449.866 436.533 462.666 442.667 474C457.867 502.4 461.6 506 475.333 506C483.6 506 486.8 504.8 492.4 499.466C499.333 493.2 498.4 496.933 507.467 435.333C512.267 402.4 514.133 390 515.333 382.666C517.067 371.866 527.067 302.666 528.133 293.333C528.8 287.466 529.6 281.733 530 280.666C530.267 279.6 531.733 270.266 533.333 260.133C534.8 249.866 536.267 241.333 536.533 241.066C536.8 240.666 537.467 245.733 537.867 252.266C538.267 258.666 539.333 269.733 540.133 276.666C541.333 288.533 548.4 366.133 550.667 394C551.2 400.933 553.867 430.933 556.4 460.666C561.333 514.8 562 522.666 565.867 563.333C567.067 575.466 569.733 606 572 631.333C578.4 703.333 577.733 698.667 581.733 703.867C588 712 592.933 714.667 602.267 714.667C609.333 714.667 611.067 714.133 615.6 710.533C624.133 703.6 626.133 699.467 627.867 685.067C629.6 670.667 633.067 645.467 638 610.666C639.867 598.133 642.8 577.466 644.667 564.666C646.533 551.866 648.533 538.266 649.333 534.666C650 530.933 650.8 526.133 651.2 524C652.4 515.066 658.8 478.533 659.467 476.266C660.133 474 660.533 474 664 477.333C668.667 481.733 676.8 483.733 684 482.133C697.733 479.066 702.4 471.866 711.2 440.666C722.4 400.533 730.267 374.933 730.933 376.133C731.333 376.8 733.867 384.266 736.4 392.666C747.867 430.133 765.6 483.333 770.667 494.666C774.533 503.733 777.867 507.066 787.733 511.466C797.333 515.866 804.8 516.4 810.933 513.2C817.6 509.733 826.4 500.8 830.933 492.8C833.2 488.666 835.2 485.2 835.333 484.933C835.467 484.8 838.933 486.266 842.8 488.533C846.8 490.666 854.8 494 860.667 496C870.267 499.066 873.867 499.466 896 500.133C909.6 500.4 1097.47 500.933 1313.73 501.2L1706.67 501.6V476.4V451.333H1508.4C1262.53 451.333 894.133 450.133 883.067 449.333C878.533 449.066 872.533 447.6 869.733 446.266C866.933 444.933 860.267 441.466 854.933 438.8C837.333 429.733 823.867 429.466 809.6 437.6C805.467 440 803.867 440.4 803.467 439.066C803.2 438.133 801.733 433.733 800.267 429.333C797.467 420.8 788.267 391.733 781.333 368.666C778.933 360.933 776.133 352 775.067 348.666C774 345.466 769.867 331.6 766 318C756.4 285.2 753.867 277.2 751.2 272.8C745.467 263.066 730.667 259.2 719.467 264.666C709.2 269.6 709.2 269.6 691.333 330.666C690.267 334.266 687.867 342.4 686.133 348.666C684.4 354.933 679.867 370.133 676 382.666C672.267 395.066 668.8 406.666 668.4 408.266C667.6 411.866 667.067 412 660.933 409.333C653.2 406.133 645.733 406.8 636.267 411.466C621.733 418.8 618.8 425.066 611.2 464C609.067 474.933 608.667 475.6 607.867 471.333C607.333 468.8 605.6 451.333 604.133 432.666C602.533 414 600.267 389.333 599.2 378C598 366.666 596.533 351.333 596 344C595.333 336.666 593.867 319.866 592.667 306.666C591.6 293.466 590 275.733 589.333 267.333C588.533 258.933 587.333 245.333 586.667 237.333C585.867 229.2 584.667 216 584 208C583.333 199.866 581.867 183.466 580.667 171.333C579.6 159.2 578 142.133 577.2 133.333C576.533 124.533 575.333 111.066 574.667 103.333C573.867 95.5998 572.4 78.5331 571.333 65.3331C567.067 14.3998 566.8 12.9331 555.733 4.66647C551.067 1.33313 548.933 0.666467 542.533 0.666467C536 0.666467 534.267 1.1998 528.8 5.33313Z" fill="#E5DCD7"/>
</svg>
