<svg width="186" height="30" viewBox="0 0 186 30" fill="none" xmlns="http://www.w3.org/2000/svg">
<path d="M147.675 28.8486L141.865 20.5196C141.621 20.5467 141.255 20.5603 140.768 20.5603H134.348V28.8486H129.066V0.408203H140.768C143.232 0.408203 145.372 0.814496 147.187 1.62708C149.029 2.43966 150.437 3.60437 151.412 5.12119C152.388 6.63801 152.875 8.43924 152.875 10.5249C152.875 12.6647 152.347 14.5065 151.291 16.0504C150.261 17.5943 148.772 18.7455 146.821 19.5039L153.363 28.8486H147.675ZM147.553 10.5249C147.553 8.7101 146.957 7.31517 145.765 6.34007C144.573 5.36497 142.826 4.87742 140.524 4.87742H134.348V16.213H140.524C142.826 16.213 144.573 15.7254 145.765 14.7503C146.957 13.7481 147.553 12.3396 147.553 10.5249Z" fill="#2D2D2D"/>
<path d="M109.468 29.253C106.569 29.253 103.956 28.63 101.626 27.3841C99.2968 26.111 97.4684 24.364 96.1412 22.1429C94.814 19.8948 94.1504 17.3893 94.1504 14.6265C94.1504 11.8637 94.814 9.3718 96.1412 7.15074C97.4684 4.90259 99.2968 3.15553 101.626 1.90957C103.956 0.636524 106.569 0 109.468 0C112.366 0 114.98 0.636524 117.309 1.90957C119.638 3.15553 121.467 4.88905 122.794 7.11011C124.121 9.33117 124.785 11.8366 124.785 14.6265C124.785 17.4164 124.121 19.9218 122.794 22.1429C121.467 24.364 119.638 26.111 117.309 27.3841C114.98 28.63 112.366 29.253 109.468 29.253ZM109.468 24.6213C111.364 24.6213 113.07 24.2015 114.587 23.3618C116.104 22.495 117.295 21.3032 118.162 19.7864C119.029 18.2425 119.462 16.5225 119.462 14.6265C119.462 12.7305 119.029 11.0241 118.162 9.50723C117.295 7.96332 116.104 6.77153 114.587 5.93186C113.07 5.06511 111.364 4.63173 109.468 4.63173C107.572 4.63173 105.865 5.06511 104.348 5.93186C102.831 6.77153 101.64 7.96332 100.773 9.50723C99.9062 11.0241 99.4728 12.7305 99.4728 14.6265C99.4728 16.5225 99.9062 18.2425 100.773 19.7864C101.64 21.3032 102.831 22.495 104.348 23.3618C105.865 24.2015 107.572 24.6213 109.468 24.6213Z" fill="#2D2D2D"/>
<path d="M62.3164 0.408203H74.7489C77.7826 0.408203 80.4777 1.0041 82.8341 2.19589C85.1906 3.36059 87.019 5.02639 88.3191 7.19328C89.6192 9.33308 90.2693 11.8115 90.2693 14.6284C90.2693 17.4454 89.6192 19.9373 88.3191 22.1042C87.019 24.244 85.1906 25.9098 82.8341 27.1016C80.4777 28.2663 77.7826 28.8486 74.7489 28.8486H62.3164V0.408203ZM74.5052 24.3794C76.5908 24.3794 78.4191 23.9867 79.9901 23.2012C81.5882 22.3886 82.8071 21.251 83.6467 19.7883C84.5135 18.2986 84.9469 16.5786 84.9469 14.6284C84.9469 12.6782 84.5135 10.9718 83.6467 9.50914C82.8071 8.01941 81.5882 6.88179 79.9901 6.09629C78.4191 5.28371 76.5908 4.87742 74.5052 4.87742H67.5982V24.3794H74.5052Z" fill="#2D2D2D"/>
<path d="M25.312 28.8486L15.3578 5.69L5.44431 28.8486H0L12.7982 0.408203H17.9987L30.8376 28.8486H25.312Z" fill="#2D2D2D"/>
<path d="M58.0038 0.408203V28.8486H53.6565L37.9736 9.5904V28.8486H32.7324V0.408203H37.0797L52.7626 19.6664V0.408203H58.0038Z" fill="#2D2D2D"/>
<rect x="123.787" y="3.29102" width="5.40388" height="36.1216" transform="rotate(60 123.787 3.29102)" fill="#2D2D2D"/>
<path d="M180.476 28.8486L170.522 5.69L160.608 28.8486H155.164L167.962 0.408203H173.163L186.002 28.8486H180.476Z" fill="#2D2D2D"/>
</svg>
