<svg width="32" height="32" viewBox="0 0 32 32" fill="none" xmlns="http://www.w3.org/2000/svg">
<rect width="32" height="32" rx="4.25" fill="#2D2D2D"/>
<path d="M22.1256 21.8965C20.947 21.8965 19.884 21.6432 18.9367 21.1365C17.9894 20.6188 17.2459 19.9083 16.7061 19.005C16.1664 18.0907 15.8965 17.0718 15.8965 15.9483C15.8965 14.8247 16.1664 13.8113 16.7061 12.908C17.2459 11.9938 17.9894 11.2833 18.9367 10.7766C19.884 10.2589 20.947 10 22.1256 10C23.3043 10 24.3673 10.2589 25.3146 10.7766C26.2619 11.2833 27.0054 11.9883 27.5452 12.8915C28.0849 13.7948 28.3548 14.8137 28.3548 15.9483C28.3548 17.0828 28.0849 18.1018 27.5452 19.005C27.0054 19.9083 26.2619 20.6188 25.3146 21.1365C24.3673 21.6432 23.3043 21.8965 22.1256 21.8965ZM22.1256 20.0129C22.8967 20.0129 23.5907 19.8422 24.2075 19.5007C24.8244 19.1482 25.3091 18.6635 25.6616 18.0467C26.0141 17.4188 26.1903 16.7193 26.1903 15.9483C26.1903 15.1772 26.0141 14.4832 25.6616 13.8664C25.3091 13.2385 24.8244 12.7538 24.2075 12.4124C23.5907 12.0599 22.8967 11.8836 22.1256 11.8836C21.3546 11.8836 20.6606 12.0599 20.0438 12.4124C19.4269 12.7538 18.9422 13.2385 18.5897 13.8664C18.2372 14.4832 18.061 15.1772 18.061 15.9483C18.061 16.7193 18.2372 17.4188 18.5897 18.0467C18.9422 18.6635 19.4269 19.1482 20.0438 19.5007C20.6606 19.8422 21.3546 20.0129 22.1256 20.0129Z" fill="#FAEBD7"/>
<path d="M13.2938 21.7311L9.24568 12.313L5.21408 21.7311H3L8.20474 10.165H10.3197L15.5409 21.7311H13.2938Z" fill="#FAEBD7"/>
<rect x="27.9492" y="11.3379" width="2.19764" height="14.6898" transform="rotate(60 27.9492 11.3379)" fill="#FAEBD7"/>
</svg>
