<svg width="20" height="20" viewBox="0 0 20 20" fill="none" xmlns="http://www.w3.org/2000/svg">
<g id="Icons / shopping-bag 2">
<path id="Vector" d="M12.9576 8.76923V5.07692C12.9576 3.37758 11.6335 2 10 2C8.36657 2 7.04242 3.37758 7.04242 5.07692V8.76923M15.9988 7.13414L16.995 16.9803C17.0502 17.5253 16.6394 18 16.1126 18H3.88737C3.3606 18 2.94983 17.5253 3.00497 16.9803L4.00121 7.13414C4.04874 6.66434 4.42954 6.30769 4.88361 6.30769H15.1164C15.5704 6.30769 15.9513 6.66434 15.9988 7.13414ZM7.33817 8.76923C7.33817 8.93916 7.20575 9.07692 7.04242 9.07692C6.87907 9.07692 6.74666 8.93916 6.74666 8.76923C6.74666 8.5993 6.87907 8.46154 7.04242 8.46154C7.20575 8.46154 7.33817 8.5993 7.33817 8.76923ZM13.2533 8.76923C13.2533 8.93916 13.1209 9.07692 12.9576 9.07692C12.7942 9.07692 12.6618 8.93916 12.6618 8.76923C12.6618 8.5993 12.7942 8.46154 12.9576 8.46154C13.1209 8.46154 13.2533 8.5993 13.2533 8.76923Z" stroke="#B7AAA7" stroke-linecap="round" stroke-linejoin="round"/>
</g>
</svg>
