<svg width="256" height="256" viewBox="0 0 256 256" fill="none" xmlns="http://www.w3.org/2000/svg">
<rect width="256" height="256" rx="34" fill="#2D2D2D"/>
<path d="M177.001 175.172C167.572 175.172 159.068 173.146 151.49 169.092C143.911 164.95 137.963 159.266 133.645 152.04C129.327 144.726 127.168 136.575 127.168 127.586C127.168 118.598 129.327 110.49 133.645 103.264C137.963 95.9502 143.911 90.2663 151.49 86.2126C159.068 82.0709 167.572 80 177.001 80C186.43 80 194.934 82.0709 202.513 86.2126C210.091 90.2663 216.04 95.9061 220.358 103.132C224.676 110.358 226.835 118.51 226.835 127.586C226.835 136.663 224.676 144.814 220.358 152.04C216.04 159.266 210.091 164.95 202.513 169.092C194.934 173.146 186.43 175.172 177.001 175.172ZM177.001 160.103C183.17 160.103 188.722 158.737 193.656 156.006C198.591 153.186 202.469 149.308 205.289 144.374C208.109 139.351 209.518 133.755 209.518 127.586C209.518 121.418 208.109 115.866 205.289 110.931C202.469 105.908 198.591 102.031 193.656 99.2988C188.722 96.4789 183.17 95.069 177.001 95.069C170.833 95.069 165.281 96.4789 160.346 99.2988C155.411 102.031 151.534 105.908 148.714 110.931C145.894 115.866 144.484 121.418 144.484 127.586C144.484 133.755 145.894 139.351 148.714 144.374C151.534 149.308 155.411 153.186 160.346 156.006C165.281 158.737 170.833 160.103 177.001 160.103Z" fill="#FAEBD7"/>
<path d="M106.35 173.851L73.9655 98.5062L41.7126 173.851H24L65.6379 81.3223H82.5574L124.327 173.851H106.35Z" fill="#FAEBD7"/>
<rect x="223.586" y="90.7031" width="17.5811" height="117.519" transform="rotate(60 223.586 90.7031)" fill="#FAEBD7"/>
</svg>
